<svg xmlns="http://www.w3.org/2000/svg" xmlns:xlink="http://www.w3.org/1999/xlink" width="72" zoomAndPan="magnify" viewBox="0 0 54 54" height="72" preserveAspectRatio="xMidYMid meet" version="1.0"><defs><clipPath id="ff1d931958"><path d="M 0.492188 0 L 53.507812 0 L 53.507812 53 L 0.492188 53 Z M 0.492188 0 " clip-rule="nonzero"/></clipPath><clipPath id="8e6030fc57"><path d="M 0.492188 0 L 53.507812 0 L 53.507812 53.019531 L 0.492188 53.019531 Z M 0.492188 0 " clip-rule="nonzero"/></clipPath></defs><path stroke-linecap="butt" transform="matrix(0.200334, 0, 0, 0.198628, -0.729891, -5.126585)" fill-opacity="1" fill="#2b2a29" fill-rule="evenodd" stroke-linejoin="miter" d="M 239.187266 109.076654 L 234.527084 109.843635 L 229.398935 110.610617 L 224.036801 111.947917 L 219.064641 112.872228 L 214.170476 114.032533 L 207.267948 115.900821 L 199.975446 118.929414 L 196.095212 120.719037 L 193.677377 122.036671 L 192.780438 126.107572 L 191.902998 130.04081 L 190.947564 134.052712 L 189.97263 138.418605 L 189.192684 141.64386 L 188.412737 145.321437 L 187.710785 148.546692 L 186.75535 152.047273 L 185.87791 155.370859 L 185.44894 156.590162 L 182.426646 157.750467 L 151.50176 169.491181 L 148.186987 172.814767 L 142.766357 179.383273 L 138.749632 184.634145 L 133.387499 191.910634 L 130.540693 196.512522 L 127.713387 200.937414 L 123.891648 207.761581 L 121.96128 211.498157 L 120.128405 214.998738 L 119.46545 216.867026 L 116.755136 223.199538 L 115.799701 225.657811 L 114.259306 229.138727 L 113.264874 232.226318 L 111.958464 235.549904 L 110.320576 240.269789 L 109.150656 244.458686 L 108.097728 248.352591 L 106.206357 245.500994 L 104.392981 242.767394 L 102.716095 239.974796 L 101.877653 238.71616 L 101.955647 236.611878 L 102.228629 233.897944 L 102.50161 230.672689 L 103.145066 226.562456 L 104.042005 221.665575 L 105.094933 216.296706 L 106.381845 210.652511 L 108.019733 204.595325 L 110.047594 197.96782 L 112.250944 191.26165 L 114.239808 185.912447 L 116.053184 181.546554 L 117.964053 177.357656 L 119.952917 172.932764 L 121.395818 169.786174 L 122.858218 166.993575 L 123.735658 165.42028 L 125.061568 163.846985 L 126.93344 161.8607 L 128.39584 160.307072 L 130.891669 158.025794 L 132.861035 155.98051 L 134.674411 154.07289 L 135.941824 152.73559 L 137.228736 151.221293 L 139.159104 149.235008 L 140.952981 149.058013 L 142.590869 148.822018 L 144.228757 148.664689 L 146.081131 148.487693 L 147.602027 148.310697 L 149.4544 148.133702 L 150.975296 147.897707 L 152.905664 147.622381 L 150.760811 147.720712 L 148.245483 147.701046 L 141.401451 147.740378 L 139.022613 147.77971 L 135.493355 151.221293 L 132.510059 154.07289 L 130.813675 155.72485 L 129.195285 157.298145 L 126.504469 159.992413 L 124.067136 162.470352 L 121.883285 164.515636 L 119.894421 166.305259 L 117.886058 168.291544 L 115.994688 170.199164 L 114.395797 171.851123 L 112.60192 173.247423 L 110.496064 172.342778 L 108.253717 171.005477 L 106.01137 169.707509 L 102.306623 167.367233 L 99.225834 165.400614 L 95.170111 162.765345 L 91.075391 159.776085 L 86.493204 156.373834 L 82.983444 153.777897 L 79.707668 150.886968 L 76.295402 148.094369 L 72.707647 144.79045 L 69.100394 141.407866 L 65.122665 137.395964 L 59.955519 132.20409 L 54.183913 125.202927 L 49.309247 118.929414 L 45.195028 112.793563 L 51.571092 112.793563 L 58.044649 113.501546 L 64.518207 114.543854 L 71.147754 115.428832 L 78.65474 116.47114 L 84.95281 117.690444 L 91.231381 118.929414 L 98.757866 120.325713 L 106.615829 122.233333 L 115.702208 124.337615 L 124.632597 126.618893 L 133.017024 129.0575 L 139.997547 131.338778 L 145.418176 133.069402 L 151.36527 135.173684 L 155.908459 136.84531 L 159.320726 138.064614 L 165.170326 140.522887 L 161.933547 138.418605 L 158.774763 136.805978 L 154.524054 134.839359 L 151.79424 133.639722 L 145.886144 131.417443 L 147.602027 129.136165 L 149.941867 126.461563 L 152.437696 123.865627 L 154.270571 122.076004 L 156.298432 120.109385 L 158.072811 118.595089 L 160.802624 117.513448 L 164.994838 116.117149 L 169.440534 115.153506 L 174.588182 114.012867 L 179.287361 113.06889 L 185.312449 112.046248 L 190.71358 111.279267 L 195.042284 110.649949 L 202.217793 109.764971 L 208.145388 109.332314 L 212.94206 109.115986 L 218.538177 108.997989 L 225.08973 108.584999 Z M 239.187266 109.076654 " stroke="#2b2a29" stroke-width="0.1" stroke-opacity="1" stroke-miterlimit="22.926001"/><path stroke-linecap="butt" transform="matrix(0.200334, 0, 0, 0.198628, -0.729891, -5.126585)" fill-opacity="1" fill="#2b2a29" fill-rule="evenodd" stroke-linejoin="miter" d="M 185.897409 159.854749 L 152.457195 172.657437 L 151.872235 173.149092 L 151.033792 173.955405 L 149.571392 175.450036 L 148.264982 176.925 L 147.387542 178.00664 L 146.68559 178.753955 L 145.691157 179.992925 L 144.755221 181.133564 L 143.858283 182.195538 L 143.175829 183.100182 L 142.376384 184.083492 L 141.888917 184.771808 L 141.284459 185.519123 L 140.641003 186.325437 L 140.153536 187.013754 L 139.607573 187.682404 L 138.92512 188.606715 L 138.262165 189.531026 L 137.365227 190.691331 L 136.312299 192.126962 L 135.473856 193.365932 L 134.498923 194.644234 L 133.796971 195.765207 L 132.802539 197.377834 L 132.276075 198.164482 L 130.521195 200.858749 L 129.819243 202.078053 L 129.292779 202.923699 L 128.844309 203.553017 L 128.376341 204.398663 L 127.713387 205.578634 L 126.835947 207.033932 L 126.017002 208.508896 L 125.393045 209.57087 L 124.613098 211.124499 L 123.521173 213.268114 L 122.585237 214.959406 L 121.454314 217.299682 L 120.92785 218.361656 L 120.615872 219.187636 L 120.518378 219.659624 L 122.624234 218.538652 L 124.632597 217.535676 L 126.523968 216.375371 L 129.370773 214.644747 L 132.334571 212.796125 L 134.966891 211.045834 L 139.003115 208.292568 L 142.161899 206.030957 L 144.813717 203.985673 L 147.56303 201.78306 L 151.560256 198.518473 L 154.953024 195.607878 L 157.370859 193.3266 L 159.944683 191.025656 L 162.752491 188.174059 L 165.209323 185.696119 L 167.763649 182.923187 L 171.429398 178.871952 L 174.393195 175.410703 L 177.805462 171.143141 L 181.607702 166.088931 Z M 185.897409 159.854749 " stroke="#2b2a29" stroke-width="0.1" stroke-opacity="1" stroke-miterlimit="22.926001"/><g clip-path="url(#ff1d931958)"><path fill="#2b2a29" d="M 27.199219 0.046875 C 33.941406 0.046875 40.089844 2.550781 44.757812 6.667969 L 43.128906 8.285156 C 38.878906 4.578125 33.304688 2.328125 27.199219 2.328125 C 21.0625 2.328125 15.460938 4.605469 11.203125 8.351562 L 9.570312 6.734375 C 14.246094 2.578125 20.425781 0.046875 27.199219 0.046875 Z M 10.160156 9.324219 C 5.789062 13.648438 3.089844 19.628906 3.089844 26.234375 C 3.089844 32.285156 5.359375 37.8125 9.101562 42.023438 L 7.46875 43.640625 C 3.3125 39.011719 0.785156 32.917969 0.785156 26.234375 C 0.785156 19 3.746094 12.449219 8.53125 7.707031 Z M 45.800781 7.640625 C 50.625 12.386719 53.613281 18.964844 53.613281 26.234375 C 53.613281 32.949219 51.0625 39.078125 46.867188 43.714844 L 45.238281 42.097656 C 49.015625 37.875 51.3125 32.320312 51.3125 26.234375 C 51.3125 19.59375 48.582031 13.585938 44.171875 9.253906 Z M 45.882812 44.746094 C 41.105469 49.488281 34.496094 52.421875 27.199219 52.421875 C 19.867188 52.421875 13.234375 49.457031 8.449219 44.671875 L 10.074219 43.058594 C 14.445312 47.433594 20.503906 50.140625 27.199219 50.140625 C 33.863281 50.140625 39.890625 47.460938 44.257812 43.128906 Z M 45.882812 44.746094 " fill-opacity="1" fill-rule="evenodd"/></g><g clip-path="url(#8e6030fc57)"><path stroke-linecap="butt" transform="matrix(0.200334, 0, 0, 0.198628, -0.729891, -5.126585)" fill="none" stroke-linejoin="miter" d="M 139.412587 26.046012 C 173.067286 26.046012 203.758188 38.652038 227.059095 59.380199 L 218.928151 67.522001 C 197.713601 48.858789 169.889003 37.531065 139.412587 37.531065 C 108.780181 37.531065 80.819092 48.996452 59.565545 67.856326 L 51.415103 59.714524 C 74.755007 38.789701 105.601898 26.046012 139.412587 26.046012 Z M 54.359401 72.753206 C 32.540393 94.523676 19.066814 124.632608 19.066814 157.888131 C 19.066814 188.351054 30.39554 216.178709 49.075263 237.378859 L 40.92482 245.520661 C 20.178238 222.216229 7.5626 191.536977 7.5626 157.888131 C 7.5626 121.466352 22.34259 88.486156 46.228457 64.611405 Z M 232.265239 64.27708 C 256.346093 88.171497 271.262573 121.289356 271.262573 157.888131 C 271.262573 191.694306 258.529943 222.550554 237.588375 245.894318 L 229.457431 237.752517 C 248.312642 216.493368 259.777858 188.52805 259.777858 157.888131 C 259.777858 124.455612 246.14829 94.209017 224.134295 72.399215 Z M 232.674711 251.086191 C 208.827841 274.960943 175.836097 289.730249 139.412587 289.730249 C 102.813589 289.730249 69.704852 274.803613 45.818985 250.712534 L 53.930431 242.590399 C 75.749439 264.616528 105.991871 278.245196 139.412587 278.245196 C 172.677313 278.245196 202.763756 264.754192 224.563266 242.94439 Z M 232.674711 251.086191 " stroke="#2b2a29" stroke-width="0.1" stroke-opacity="1" stroke-miterlimit="22.926001"/></g></svg>